<svg width="15" height="16" viewBox="0 0 15 16" fill="none" xmlns="http://www.w3.org/2000/svg">
<path d="M14.625 7.87537C14.625 7.42781 14.4472 6.99859 14.1307 6.68212C13.8143 6.36565 13.3851 6.18787 12.9375 6.18787H7.875V5.55505C8.35781 5.42965 8.78538 5.14764 9.09075 4.75321C9.39611 4.35877 9.56203 3.87419 9.5625 3.37537C9.5625 1.40662 7.70344 0.147319 7.62469 0.0945842C7.53225 0.0329122 7.42362 0 7.3125 0C7.20138 0 7.09275 0.0329122 7.00031 0.0945842C6.92156 0.147319 5.0625 1.40662 5.0625 3.37537C5.06297 3.87419 5.22889 4.35877 5.53425 4.75321C5.83962 5.14764 6.26719 5.42965 6.75 5.55505V6.18787H1.6875C1.23995 6.18787 0.810725 6.36565 0.494257 6.68212C0.17779 6.99859 0 7.42781 0 7.87537V9.51576C0.00057712 10.1294 0.19771 10.7267 0.5625 11.2201V14.0629C0.5625 14.5104 0.74029 14.9396 1.05676 15.2561C1.37322 15.5726 1.80245 15.7504 2.25 15.7504H12.375C12.8226 15.7504 13.2518 15.5726 13.5682 15.2561C13.8847 14.9396 14.0625 14.5104 14.0625 14.0629V11.2201C14.4273 10.7267 14.6244 10.1294 14.625 9.51576V7.87537ZM6.1875 3.37537C6.1875 2.42122 6.89062 1.65552 7.3125 1.28076C7.73438 1.65552 8.4375 2.42122 8.4375 3.37537C8.4375 3.67373 8.31897 3.95988 8.10799 4.17086C7.89702 4.38184 7.61087 4.50037 7.3125 4.50037C7.01413 4.50037 6.72798 4.38184 6.51701 4.17086C6.30603 3.95988 6.1875 3.67373 6.1875 3.37537ZM1.125 7.87537C1.125 7.72618 1.18426 7.58311 1.28975 7.47762C1.39524 7.37213 1.53832 7.31287 1.6875 7.31287H12.9375C13.0867 7.31287 13.2298 7.37213 13.3352 7.47762C13.4407 7.58311 13.5 7.72618 13.5 7.87537V9.51576C13.5 10.4474 12.7645 11.2251 11.8603 11.2497C11.6348 11.2561 11.4102 11.2172 11.2 11.1353C10.9898 11.0534 10.7981 10.9301 10.6363 10.7729C10.4745 10.6156 10.3459 10.4275 10.2581 10.2197C10.1703 10.0118 10.125 9.78849 10.125 9.56287C10.125 9.41368 10.0657 9.27061 9.96025 9.16512C9.85476 9.05963 9.71168 9.00037 9.5625 9.00037C9.41332 9.00037 9.27024 9.05963 9.16475 9.16512C9.05926 9.27061 9 9.41368 9 9.56287C9 10.0104 8.82221 10.4396 8.50574 10.7561C8.18928 11.0726 7.76005 11.2504 7.3125 11.2504C6.86495 11.2504 6.43572 11.0726 6.11926 10.7561C5.80279 10.4396 5.625 10.0104 5.625 9.56287C5.625 9.41368 5.56574 9.27061 5.46025 9.16512C5.35476 9.05963 5.21168 9.00037 5.0625 9.00037C4.91332 9.00037 4.77024 9.05963 4.66475 9.16512C4.55926 9.27061 4.5 9.41368 4.5 9.56287C4.50009 9.78855 4.45491 10.012 4.36713 10.2199C4.27935 10.4278 4.15076 10.616 3.98896 10.7733C3.82716 10.9307 3.63545 11.054 3.42516 11.1359C3.21487 11.2178 2.99028 11.2568 2.76469 11.2504C1.86047 11.2251 1.125 10.4474 1.125 9.51576V7.87537ZM12.375 14.6254H2.25C2.10082 14.6254 1.95774 14.5661 1.85225 14.4606C1.74676 14.3551 1.6875 14.2121 1.6875 14.0629V12.1335C2.01676 12.2827 2.37241 12.3649 2.73375 12.3754C3.10968 12.3871 3.48409 12.3226 3.83449 12.186C4.1849 12.0493 4.50406 11.8432 4.77281 11.5801C4.87774 11.4779 4.9746 11.3676 5.0625 11.2504C5.32448 11.5997 5.66418 11.8832 6.05471 12.0784C6.44524 12.2737 6.87587 12.3754 7.3125 12.3754C7.74913 12.3754 8.17976 12.2737 8.57029 12.0784C8.96082 11.8832 9.30052 11.5997 9.5625 11.2504C9.65069 11.3671 9.74777 11.4769 9.85289 11.5787C10.3762 12.0913 11.08 12.3774 11.8125 12.3754C11.8392 12.3754 11.8659 12.3754 11.8927 12.3754C12.2535 12.3647 12.6087 12.2825 12.9375 12.1335V14.0629C12.9375 14.2121 12.8782 14.3551 12.7727 14.4606C12.6673 14.5661 12.5242 14.6254 12.375 14.6254Z" fill="black"/>
</svg>
