<svg width="13" height="14" viewBox="0 0 13 14" fill="none" xmlns="http://www.w3.org/2000/svg">
<path fill-rule="evenodd" clip-rule="evenodd" d="M6.33761 2.01256C5.81396 2.01256 5.29545 2.1157 4.81166 2.3161C4.32788 2.51649 3.8883 2.8102 3.51802 3.18048C3.14775 3.55075 2.85403 3.99033 2.65364 4.47411C2.45325 4.9579 2.35011 5.47642 2.35011 6.00006C2.35011 8.3079 1.86622 9.69778 1.40187 10.5001H11.2733C10.809 9.69778 10.3251 8.30789 10.3251 6.00006C10.3251 5.47642 10.222 4.9579 10.0216 4.47411C9.82119 3.99033 9.52747 3.55075 9.1572 3.18048C8.78692 2.8102 8.34735 2.51649 7.86356 2.3161C7.37978 2.1157 6.86126 2.01256 6.33761 2.01256ZM4.42898 1.39222C5.03409 1.14157 5.68264 1.01256 6.33761 1.01256C6.99258 1.01256 7.64113 1.14157 8.24624 1.39222C8.85136 1.64286 9.40117 2.01024 9.86431 2.47337C10.3274 2.9365 10.6948 3.48632 10.9455 4.09143C11.1961 4.69654 11.3251 5.3451 11.3251 6.00006C11.3251 8.16674 11.7785 9.37676 12.1391 9.99955L12.1394 10.0001C12.227 10.1518 12.2732 10.3239 12.2733 10.4992C12.2735 10.6744 12.2276 10.8466 12.1403 10.9985C12.0529 11.1505 11.9272 11.2767 11.7756 11.3648C11.6241 11.4528 11.4521 11.4994 11.2769 11.5001L11.2751 11.5001H1.40011L1.39835 11.5001C1.22311 11.4994 1.05111 11.4528 0.899584 11.3648C0.748055 11.2767 0.622316 11.1505 0.534965 10.9985C0.447614 10.8466 0.401717 10.6744 0.401872 10.4992C0.402027 10.3239 0.448229 10.1518 0.53585 10.0001L0.536147 9.99955C0.896708 9.37676 1.35011 8.16674 1.35011 6.00006C1.35011 5.3451 1.47912 4.69654 1.72976 4.09143C1.98041 3.48632 2.34778 2.9365 2.81092 2.47337C3.27405 2.01024 3.82387 1.64286 4.42898 1.39222Z" fill="#EBF3F2"/>
<path fill-rule="evenodd" clip-rule="evenodd" d="M4.33761 10.5001C4.61375 10.5001 4.83761 10.7239 4.83761 11.0001V11.5001C4.83761 11.8979 4.99565 12.2794 5.27695 12.5607C5.55826 12.842 5.93979 13.0001 6.33761 13.0001C6.73544 13.0001 7.11697 12.842 7.39827 12.5607C7.67958 12.2794 7.83761 11.8979 7.83761 11.5001V11.0001C7.83761 10.7239 8.06147 10.5001 8.33761 10.5001C8.61375 10.5001 8.83761 10.7239 8.83761 11.0001V11.5001C8.83761 12.1631 8.57422 12.799 8.10538 13.2678C7.63654 13.7367 7.00065 14.0001 6.33761 14.0001C5.67457 14.0001 5.03868 13.7367 4.56984 13.2678C4.101 12.799 3.83761 12.1631 3.83761 11.5001V11.0001C3.83761 10.7239 4.06147 10.5001 4.33761 10.5001Z" fill="#EBF3F2"/>
<path fill-rule="evenodd" clip-rule="evenodd" d="M9.3773 0.233168C9.52471 -0.000341997 9.8335 -0.0701457 10.067 0.0772574C11.1626 0.768852 12.0468 1.7485 12.623 2.90898C12.7457 3.15632 12.6448 3.45637 12.3974 3.57916C12.1501 3.70195 11.8501 3.60099 11.7273 3.35365C11.2327 2.35748 10.4737 1.51654 9.53321 0.922872C9.2997 0.775469 9.2299 0.466678 9.3773 0.233168Z" fill="#EBF3F2"/>
<path fill-rule="evenodd" clip-rule="evenodd" d="M3.29792 0.233168C3.44532 0.466678 3.37552 0.775469 3.14201 0.922872C2.20154 1.51654 1.4425 2.35748 0.94796 3.35365C0.82517 3.60099 0.52512 3.70195 0.277779 3.57916C0.0304391 3.45637 -0.0705286 3.15632 0.0522615 2.90898C0.628376 1.7485 1.51262 0.768852 2.60821 0.0772574C2.84172 -0.0701457 3.15052 -0.000341997 3.29792 0.233168Z" fill="#EBF3F2"/>
</svg>
