<svg width="17" height="17" viewBox="0 0 17 17" fill="none" xmlns="http://www.w3.org/2000/svg">
<path d="M8.125 0C6.51803 0 4.94714 0.476523 3.611 1.36931C2.27485 2.2621 1.23344 3.53105 0.618482 5.0157C0.00352044 6.50035 -0.157382 8.13401 0.156123 9.71011C0.469628 11.2862 1.24346 12.7339 2.37976 13.8702C3.51606 15.0065 4.9638 15.7804 6.53989 16.0939C8.11599 16.4074 9.74966 16.2465 11.2343 15.6315C12.719 15.0166 13.9879 13.9752 14.8807 12.639C15.7735 11.3029 16.25 9.73197 16.25 8.125C16.2477 5.97081 15.391 3.90551 13.8677 2.38227C12.3445 0.85903 10.2792 0.00227486 8.125 0ZM8.125 15C6.76526 15 5.43605 14.5968 4.30546 13.8414C3.17487 13.0859 2.29368 12.0122 1.77333 10.7559C1.25298 9.49971 1.11683 8.11737 1.3821 6.78375C1.64738 5.45013 2.30216 4.22513 3.26364 3.26364C4.22513 2.30215 5.45014 1.64737 6.78376 1.3821C8.11738 1.11683 9.49971 1.25298 10.756 1.77333C12.0122 2.29368 13.0859 3.17487 13.8414 4.30545C14.5968 5.43604 15 6.76525 15 8.125C14.9979 9.94773 14.2729 11.6952 12.9841 12.9841C11.6952 14.2729 9.94773 14.9979 8.125 15ZM11.25 9.6875C11.25 10.2677 11.0195 10.8241 10.6093 11.2343C10.1991 11.6445 9.64266 11.875 9.0625 11.875H8.75V12.5C8.75 12.6658 8.68416 12.8247 8.56695 12.9419C8.44974 13.0592 8.29076 13.125 8.125 13.125C7.95924 13.125 7.80027 13.0592 7.68306 12.9419C7.56585 12.8247 7.5 12.6658 7.5 12.5V11.875H6.25C6.08424 11.875 5.92527 11.8092 5.80806 11.6919C5.69085 11.5747 5.625 11.4158 5.625 11.25C5.625 11.0842 5.69085 10.9253 5.80806 10.8081C5.92527 10.6908 6.08424 10.625 6.25 10.625H9.0625C9.31114 10.625 9.5496 10.5262 9.72542 10.3504C9.90123 10.1746 10 9.93614 10 9.6875C10 9.43886 9.90123 9.2004 9.72542 9.02459C9.5496 8.84877 9.31114 8.75 9.0625 8.75H7.1875C6.60734 8.75 6.05094 8.51953 5.64071 8.1093C5.23047 7.69906 5 7.14266 5 6.5625C5 5.98234 5.23047 5.42594 5.64071 5.0157C6.05094 4.60547 6.60734 4.375 7.1875 4.375H7.5V3.75C7.5 3.58424 7.56585 3.42527 7.68306 3.30806C7.80027 3.19085 7.95924 3.125 8.125 3.125C8.29076 3.125 8.44974 3.19085 8.56695 3.30806C8.68416 3.42527 8.75 3.58424 8.75 3.75V4.375H10C10.1658 4.375 10.3247 4.44085 10.4419 4.55806C10.5592 4.67527 10.625 4.83424 10.625 5C10.625 5.16576 10.5592 5.32473 10.4419 5.44194C10.3247 5.55915 10.1658 5.625 10 5.625H7.1875C6.93886 5.625 6.70041 5.72377 6.52459 5.89959C6.34878 6.0754 6.25 6.31386 6.25 6.5625C6.25 6.81114 6.34878 7.0496 6.52459 7.22541C6.70041 7.40123 6.93886 7.5 7.1875 7.5H9.0625C9.64266 7.5 10.1991 7.73047 10.6093 8.1407C11.0195 8.55094 11.25 9.10734 11.25 9.6875Z" fill="#63716E"/>
</svg>
