<svg width="15" height="14" viewBox="0 0 15 14" fill="none" xmlns="http://www.w3.org/2000/svg">
<path d="M14.3747 4.59458L7.62469 0.0945842C7.53225 0.0329123 7.42362 0 7.3125 0C7.20138 0 7.09275 0.0329123 7.00031 0.0945842L0.250313 4.59458C0.173258 4.64599 0.110091 4.71564 0.0664241 4.79733C0.0227567 4.87902 -6.00461e-05 4.97023 1.18677e-07 5.06287V12.3754C1.18677e-07 12.6737 0.118527 12.9599 0.329505 13.1709C0.540483 13.3818 0.826632 13.5004 1.125 13.5004H13.5C13.7984 13.5004 14.0845 13.3818 14.2955 13.1709C14.5065 12.9599 14.625 12.6737 14.625 12.3754V5.06287C14.6251 4.97023 14.6022 4.87902 14.5586 4.79733C14.5149 4.71564 14.4517 4.64599 14.3747 4.59458ZM5.11313 9.00037L1.125 11.8129V6.15482L5.11313 9.00037ZM6.26414 9.56287H8.36086L12.3427 12.3754H2.28234L6.26414 9.56287ZM9.51187 9.00037L13.5 6.15482V11.8129L9.51187 9.00037ZM7.3125 1.23857L13.0718 5.07833L8.36086 8.43787H6.26555L1.55461 5.07833L7.3125 1.23857Z" fill="black"/>
</svg>
