<svg width="12" height="10" viewBox="0 0 12 10" fill="none" xmlns="http://www.w3.org/2000/svg">
<path d="M9 2C9 1.86739 9.05268 1.74021 9.14645 1.64645C9.24021 1.55268 9.36739 1.5 9.5 1.5H11.5C11.6326 1.5 11.7598 1.55268 11.8536 1.64645C11.9473 1.74021 12 1.86739 12 2C12 2.13261 11.9473 2.25979 11.8536 2.35355C11.7598 2.44732 11.6326 2.5 11.5 2.5H9.5C9.36739 2.5 9.24021 2.44732 9.14645 2.35355C9.05268 2.25979 9 2.13261 9 2ZM0.5 2.5H7V3.5C7 3.63261 7.05268 3.75979 7.14645 3.85355C7.24021 3.94732 7.36739 4 7.5 4C7.63261 4 7.75979 3.94732 7.85355 3.85355C7.94732 3.75979 8 3.63261 8 3.5V0.5C8 0.367392 7.94732 0.240215 7.85355 0.146447C7.75979 0.0526785 7.63261 0 7.5 0C7.36739 0 7.24021 0.0526785 7.14645 0.146447C7.05268 0.240215 7 0.367392 7 0.5V1.5H0.5C0.367392 1.5 0.240215 1.55268 0.146447 1.64645C0.0526785 1.74021 0 1.86739 0 2C0 2.13261 0.0526785 2.25979 0.146447 2.35355C0.240215 2.44732 0.367392 2.5 0.5 2.5ZM11.5 7.5H5.5C5.36739 7.5 5.24021 7.55268 5.14645 7.64645C5.05268 7.74021 5 7.86739 5 8C5 8.13261 5.05268 8.25979 5.14645 8.35355C5.24021 8.44732 5.36739 8.5 5.5 8.5H11.5C11.6326 8.5 11.7598 8.44732 11.8536 8.35355C11.9473 8.25979 12 8.13261 12 8C12 7.86739 11.9473 7.74021 11.8536 7.64645C11.7598 7.55268 11.6326 7.5 11.5 7.5ZM3.5 6C3.36739 6 3.24021 6.05268 3.14645 6.14645C3.05268 6.24021 3 6.36739 3 6.5V7.5H0.5C0.367392 7.5 0.240215 7.55268 0.146447 7.64645C0.0526785 7.74021 0 7.86739 0 8C0 8.13261 0.0526785 8.25979 0.146447 8.35355C0.240215 8.44732 0.367392 8.5 0.5 8.5H3V9.5C3 9.63261 3.05268 9.75979 3.14645 9.85355C3.24021 9.94732 3.36739 10 3.5 10C3.63261 10 3.75979 9.94732 3.85355 9.85355C3.94732 9.75979 4 9.63261 4 9.5V6.5C4 6.36739 3.94732 6.24021 3.85355 6.14645C3.75979 6.05268 3.63261 6 3.5 6Z" fill="black"/>
</svg>
