<svg width="15" height="15" viewBox="0 0 15 15" fill="none" xmlns="http://www.w3.org/2000/svg">
<path d="M13.5007 0H10.1257C9.97653 0 9.83346 0.0592633 9.72797 0.164753C9.62248 0.270242 9.56322 0.413316 9.56322 0.5625C9.56322 0.711684 9.62248 0.854758 9.72797 0.960247C9.83346 1.06574 9.97653 1.125 10.1257 1.125H12.143L9.18494 4.08305C8.06761 3.16974 6.642 2.72079 5.20296 2.82907C3.76392 2.93735 2.42154 3.59456 1.45345 4.66478C0.485369 5.735 -0.0343581 7.13636 0.00176429 8.57901C0.0378867 10.0217 0.627095 11.3953 1.64753 12.4157C2.66796 13.4361 4.04155 14.0253 5.4842 14.0615C6.92686 14.0976 8.32821 13.5778 9.39844 12.6098C10.4687 11.6417 11.1259 10.2993 11.2341 8.86026C11.3424 7.42122 10.8935 5.99561 9.98017 4.87828L12.9382 1.92094V3.9375C12.9382 4.08668 12.9975 4.22976 13.103 4.33525C13.2085 4.44074 13.3515 4.5 13.5007 4.5C13.6499 4.5 13.793 4.44074 13.8985 4.33525C14.004 4.22976 14.0632 4.08668 14.0632 3.9375V0.5625C14.0632 0.413316 14.004 0.270242 13.8985 0.164753C13.793 0.0592633 13.6499 0 13.5007 0ZM8.80665 11.622C8.17724 12.2511 7.37541 12.6795 6.50255 12.8529C5.62969 13.0264 4.725 12.9372 3.90285 12.5965C3.0807 12.2559 2.37801 11.6791 1.88364 10.9391C1.38926 10.1991 1.12539 9.32919 1.12539 8.43926C1.12539 7.54933 1.38926 6.67938 1.88364 5.9394C2.37801 5.19942 3.0807 4.62265 3.90285 4.28199C4.725 3.94134 5.62969 3.85211 6.50255 4.02558C7.37541 4.19905 8.17724 4.62743 8.80665 5.25656C9.64929 6.10145 10.1225 7.246 10.1225 8.43926C10.1225 9.63251 9.64929 10.7771 8.80665 11.622Z" fill="black"/>
</svg>
