<svg width="14" height="11" viewBox="0 0 14 11" fill="none" xmlns="http://www.w3.org/2000/svg">
<path d="M2.51124 0.147163C2.47282 0.103854 2.42619 0.0686016 2.37405 0.0434485C2.3219 0.0182953 2.26528 0.00374189 2.20747 0.000631767C2.14966 -0.00247836 2.09181 0.0059166 2.03726 0.0253302C1.98272 0.0447437 1.93257 0.0747897 1.88973 0.113727C1.84688 0.152664 1.81219 0.199717 1.78766 0.25216C1.76314 0.304603 1.74927 0.361393 1.74685 0.419237C1.74443 0.477081 1.75352 0.53483 1.77359 0.589136C1.79365 0.643442 1.8243 0.693225 1.86375 0.735601L2.91593 1.89334C0.929682 3.11232 0.0754635 4.99138 0.0377291 5.07669C0.0128535 5.13265 0 5.1932 0 5.25443C0 5.31566 0.0128535 5.37621 0.0377291 5.43216C0.0568698 5.47537 0.520073 6.5024 1.54984 7.53216C2.92195 8.90373 4.655 9.62888 6.5625 9.62888C7.54283 9.63447 8.51326 9.43263 9.41007 9.03662L10.6132 10.3606C10.6516 10.4039 10.6983 10.4392 10.7504 10.4643C10.8025 10.4895 10.8592 10.504 10.917 10.5071C10.9748 10.5102 11.0326 10.5018 11.0872 10.4824C11.1417 10.463 11.1919 10.433 11.2347 10.394C11.2776 10.3551 11.3123 10.308 11.3368 10.2556C11.3613 10.2032 11.3752 10.1464 11.3776 10.0885C11.38 10.0307 11.3709 9.97293 11.3509 9.91863C11.3308 9.86432 11.3001 9.81454 11.2607 9.77216L2.51124 0.147163ZM5.0996 4.29466L7.37843 6.80208C7.03527 6.98262 6.64186 7.04407 6.25998 6.97678C5.87811 6.90949 5.52939 6.71728 5.2686 6.43032C5.00781 6.14337 4.8497 5.77792 4.81911 5.39138C4.78853 5.00483 4.88719 4.61906 5.0996 4.29466ZM6.5625 8.75388C4.87921 8.75388 3.40867 8.14193 2.19132 6.93552C1.69165 6.43895 1.26668 5.8725 0.929682 5.25388C1.18617 4.77318 2.00484 3.42787 3.51914 2.55341L4.50351 3.63349C4.12241 4.12158 3.92614 4.72868 3.94938 5.34749C3.97262 5.9663 4.21388 6.55697 4.63051 7.0151C5.04715 7.47323 5.61233 7.76931 6.22616 7.85102C6.83999 7.93273 7.46295 7.7948 7.98492 7.46162L8.79046 8.34755C8.07952 8.62031 7.32395 8.75811 6.5625 8.75388ZM6.89062 3.53505C6.77662 3.5133 6.67593 3.44715 6.6107 3.35115C6.54547 3.25516 6.52105 3.13718 6.54281 3.02318C6.56456 2.90918 6.63072 2.80849 6.72671 2.74326C6.82271 2.67803 6.94068 2.65361 7.05468 2.67537C7.61228 2.78347 8.11999 3.06892 8.50209 3.48916C8.88419 3.9094 9.1202 4.4419 9.17492 5.00724C9.18572 5.12277 9.15019 5.23785 9.07614 5.32718C9.0021 5.41651 8.8956 5.47276 8.78007 5.48357C8.76641 5.48437 8.75272 5.48437 8.73906 5.48357C8.62971 5.48404 8.52415 5.44354 8.44317 5.37005C8.36219 5.29657 8.31167 5.19542 8.30156 5.08654C8.26473 4.7105 8.10753 4.3564 7.85332 4.07687C7.59911 3.79734 7.26148 3.60731 6.89062 3.53505ZM13.0856 5.43216C13.0627 5.48357 12.5087 6.71021 11.2612 7.82748C11.2186 7.86687 11.1686 7.89739 11.1141 7.91725C11.0595 7.93712 11.0016 7.94593 10.9436 7.94319C10.8856 7.94044 10.8288 7.92619 10.7764 7.90126C10.724 7.87633 10.677 7.84122 10.6383 7.79797C10.5996 7.75473 10.5699 7.70421 10.5509 7.64937C10.5319 7.59453 10.524 7.53646 10.5277 7.47853C10.5313 7.42061 10.5465 7.364 10.5723 7.31199C10.598 7.25998 10.6339 7.21362 10.6777 7.1756C11.2897 6.62578 11.8038 5.97596 12.198 5.25388C11.8603 4.6347 11.4344 4.06786 10.9337 3.57115C9.71632 2.36584 8.24578 1.75388 6.5625 1.75388C6.20782 1.75345 5.85371 1.78217 5.50375 1.83974C5.44683 1.84981 5.38849 1.84849 5.33209 1.83588C5.27569 1.82327 5.22234 1.79961 5.17514 1.76626C5.12793 1.73292 5.0878 1.69055 5.05707 1.64161C5.02633 1.59267 5.00559 1.53812 4.99605 1.48112C4.98652 1.42411 4.98837 1.36579 5.0015 1.3095C5.01464 1.25322 5.03879 1.2001 5.07257 1.15321C5.10636 1.10631 5.14909 1.06658 5.19832 1.03629C5.24754 1.00601 5.30228 0.98578 5.35937 0.976773C5.75704 0.911112 6.15944 0.87837 6.5625 0.878882C8.47 0.878882 10.203 1.60404 11.5752 2.97615C12.6049 4.00591 13.0681 5.03349 13.0873 5.07669C13.1121 5.13265 13.125 5.1932 13.125 5.25443C13.125 5.31566 13.1121 5.37621 13.0873 5.43216H13.0856Z" fill="#66706D"/>
</svg>
