<svg width="14" height="15" viewBox="0 0 14 15" fill="none" xmlns="http://www.w3.org/2000/svg">
<path d="M13.1702 5.95424L7.54524 0.329244C7.33428 0.118425 7.04825 0 6.75001 0C6.45177 0 6.16573 0.118425 5.95477 0.329244L0.329773 5.95424C0.224799 6.05844 0.141587 6.18246 0.0849752 6.3191C0.0283631 6.45575 -0.000519368 6.60228 7.06886e-06 6.75018V13.5002C7.06886e-06 13.6494 0.0592704 13.7924 0.16476 13.8979C0.270249 14.0034 0.413323 14.0627 0.562507 14.0627H5.06251C5.21169 14.0627 5.35477 14.0034 5.46025 13.8979C5.56574 13.7924 5.62501 13.6494 5.62501 13.5002V9.56268H7.87501V13.5002C7.87501 13.6494 7.93427 13.7924 8.03976 13.8979C8.14525 14.0034 8.28832 14.0627 8.43751 14.0627H12.9375C13.0867 14.0627 13.2298 14.0034 13.3353 13.8979C13.4407 13.7924 13.5 13.6494 13.5 13.5002V6.75018C13.5005 6.60228 13.4717 6.45575 13.415 6.3191C13.3584 6.18246 13.2752 6.05844 13.1702 5.95424ZM12.375 12.9377H9.00001V9.00018C9.00001 8.851 8.94074 8.70792 8.83525 8.60243C8.72977 8.49694 8.58669 8.43768 8.43751 8.43768H5.06251C4.91332 8.43768 4.77025 8.49694 4.66476 8.60243C4.55927 8.70792 4.50001 8.851 4.50001 9.00018V12.9377H1.12501V6.75018L6.75001 1.12518L12.375 6.75018V12.9377Z" fill="black"/>
</svg>
