<svg width="15" height="15" viewBox="0 0 15 15" fill="none" xmlns="http://www.w3.org/2000/svg">
<path d="M14.375 10C14.375 10.1658 14.3092 10.3247 14.1919 10.4419C14.0747 10.5592 13.9158 10.625 13.75 10.625H11.875V11.875H13.125C13.2908 11.875 13.4497 11.9408 13.5669 12.0581C13.6842 12.1753 13.75 12.3342 13.75 12.5C13.75 12.6658 13.6842 12.8247 13.5669 12.9419C13.4497 13.0592 13.2908 13.125 13.125 13.125H11.875V14.375C11.875 14.5408 11.8092 14.6997 11.6919 14.8169C11.5747 14.9342 11.4158 15 11.25 15C11.0842 15 10.9253 14.9342 10.8081 14.8169C10.6908 14.6997 10.625 14.5408 10.625 14.375V10C10.625 9.83424 10.6908 9.67527 10.8081 9.55806C10.9253 9.44085 11.0842 9.375 11.25 9.375H13.75C13.9158 9.375 14.0747 9.44085 14.1919 9.55806C14.3092 9.67527 14.375 9.83424 14.375 10ZM4.0625 11.5625C4.0625 12.1427 3.83203 12.6991 3.4218 13.1093C3.01156 13.5195 2.45516 13.75 1.875 13.75H1.25V14.375C1.25 14.5408 1.18415 14.6997 1.06694 14.8169C0.949731 14.9342 0.79076 15 0.625 15C0.45924 15 0.300269 14.9342 0.183058 14.8169C0.0658481 14.6997 0 14.5408 0 14.375V10C0 9.83424 0.0658481 9.67527 0.183058 9.55806C0.300269 9.44085 0.45924 9.375 0.625 9.375H1.875C2.45516 9.375 3.01156 9.60547 3.4218 10.0157C3.83203 10.4259 4.0625 10.9823 4.0625 11.5625ZM2.8125 11.5625C2.8125 11.3139 2.71373 11.0754 2.53791 10.8996C2.3621 10.7238 2.12364 10.625 1.875 10.625H1.25V12.5H1.875C2.12364 12.5 2.3621 12.4012 2.53791 12.2254C2.71373 12.0496 2.8125 11.8111 2.8125 11.5625ZM9.6875 12.1875C9.6875 12.9334 9.39118 13.6488 8.86374 14.1762C8.33629 14.7037 7.62092 15 6.875 15H5.625C5.45924 15 5.30027 14.9342 5.18306 14.8169C5.06585 14.6997 5 14.5408 5 14.375V10C5 9.83424 5.06585 9.67527 5.18306 9.55806C5.30027 9.44085 5.45924 9.375 5.625 9.375H6.875C7.62092 9.375 8.33629 9.67132 8.86374 10.1988C9.39118 10.7262 9.6875 11.4416 9.6875 12.1875ZM8.4375 12.1875C8.4375 11.7731 8.27288 11.3757 7.97985 11.0826C7.68683 10.7896 7.2894 10.625 6.875 10.625H6.25V13.75H6.875C7.2894 13.75 7.68683 13.5854 7.97985 13.2924C8.27288 12.9993 8.4375 12.6019 8.4375 12.1875ZM0 6.875V1.25C0 0.91848 0.131696 0.600537 0.366116 0.366117C0.600537 0.131696 0.918479 1.93249e-07 1.25 1.93249e-07H8.75C8.8321 -6.43662e-05 8.91341 0.0160474 8.98928 0.0474149C9.06515 0.0787825 9.1341 0.124791 9.19219 0.182813L13.5672 4.55781C13.6252 4.6159 13.6712 4.68485 13.7026 4.76072C13.734 4.83659 13.7501 4.9179 13.75 5V6.875C13.75 7.04076 13.6842 7.19973 13.5669 7.31694C13.4497 7.43415 13.2908 7.5 13.125 7.5C12.9592 7.5 12.8003 7.43415 12.6831 7.31694C12.5658 7.19973 12.5 7.04076 12.5 6.875V5.625H8.75C8.58424 5.625 8.42527 5.55915 8.30806 5.44194C8.19085 5.32473 8.125 5.16576 8.125 5V1.25H1.25V6.875C1.25 7.04076 1.18415 7.19973 1.06694 7.31694C0.949731 7.43415 0.79076 7.5 0.625 7.5C0.45924 7.5 0.300269 7.43415 0.183058 7.31694C0.0658481 7.19973 0 7.04076 0 6.875ZM9.375 4.375H11.6164L9.375 2.13359V4.375Z" fill="black"/>
</svg>
