<svg width="14" height="17" viewBox="0 0 14 17" fill="none" xmlns="http://www.w3.org/2000/svg">
<path fill-rule="evenodd" clip-rule="evenodd" d="M6.875 6.875C5.83947 6.875 5 7.71447 5 8.75C5 9.78553 5.83947 10.625 6.875 10.625C7.91053 10.625 8.75 9.78553 8.75 8.75C8.75 7.71447 7.91053 6.875 6.875 6.875ZM3.75 8.75C3.75 7.02411 5.14911 5.625 6.875 5.625C8.60089 5.625 10 7.02411 10 8.75C10 10.4759 8.60089 11.875 6.875 11.875C5.14911 11.875 3.75 10.4759 3.75 8.75Z" fill="#EBF3F2"/>
<path fill-rule="evenodd" clip-rule="evenodd" d="M6.875 11.875C6.24432 11.875 5.62229 12.0218 5.05819 12.3039C4.49409 12.5859 4.00341 12.9955 3.625 13.5C3.41789 13.7761 3.02614 13.8321 2.75 13.625C2.47386 13.4179 2.41789 13.0261 2.625 12.75C3.11984 12.0902 3.76151 11.5547 4.49918 11.1859C5.23685 10.817 6.05026 10.625 6.875 10.625C7.69974 10.625 8.51315 10.817 9.25082 11.1859C9.98849 11.5547 10.6302 12.0902 11.125 12.75C11.3321 13.0261 11.2761 13.4179 11 13.625C10.7239 13.8321 10.3321 13.7761 10.125 13.5C9.74659 12.9955 9.25591 12.5859 8.69181 12.3039C8.1277 12.0218 7.50568 11.875 6.875 11.875Z" fill="#EBF3F2"/>
<path fill-rule="evenodd" clip-rule="evenodd" d="M12.5 0C13.1904 0 13.75 0.559644 13.75 1.25V15C13.75 15.6904 13.1904 16.25 12.5 16.25H1.25C0.559644 16.25 0 15.6904 0 15V1.25C0 0.559644 0.559644 0 1.25 0H12.5ZM12.5 15V1.25H1.25V15H12.5Z" fill="#EBF3F2"/>
<path fill-rule="evenodd" clip-rule="evenodd" d="M3.75 3.125C3.75 2.77982 4.02982 2.5 4.375 2.5H9.375C9.72018 2.5 10 2.77982 10 3.125C10 3.47018 9.72018 3.75 9.375 3.75H4.375C4.02982 3.75 3.75 3.47018 3.75 3.125Z" fill="#EBF3F2"/>
</svg>
