<svg width="15" height="15" viewBox="0 0 15 15" fill="none" xmlns="http://www.w3.org/2000/svg">
<path d="M7.3125 0C5.86623 0 4.45243 0.428871 3.2499 1.23238C2.04736 2.03589 1.1101 3.17794 0.556634 4.51413C0.00316839 5.85031 -0.141644 7.32061 0.140511 8.7391C0.422665 10.1576 1.11911 11.4605 2.14178 12.4832C3.16446 13.5059 4.46742 14.2023 5.88591 14.4845C7.30439 14.7666 8.77469 14.6218 10.1109 14.0684C11.4471 13.5149 12.5891 12.5776 13.3926 11.3751C14.1961 10.1726 14.625 8.75878 14.625 7.3125C14.623 5.37373 13.8519 3.51496 12.481 2.14404C11.11 0.773127 9.25127 0.00204737 7.3125 0ZM3.52125 12.1992C3.92818 11.5628 4.48876 11.0391 5.15132 10.6763C5.81389 10.3135 6.55712 10.1234 7.3125 10.1234C8.06789 10.1234 8.81112 10.3135 9.47368 10.6763C10.1362 11.0391 10.6968 11.5628 11.1038 12.1992C10.0198 13.0423 8.68572 13.5 7.3125 13.5C5.93928 13.5 4.60524 13.0423 3.52125 12.1992ZM5.0625 6.75C5.0625 6.30499 5.19446 5.86998 5.4417 5.49997C5.68893 5.12996 6.04033 4.84157 6.45147 4.67127C6.8626 4.50097 7.315 4.45642 7.75146 4.54323C8.18791 4.63005 8.58882 4.84434 8.90349 5.15901C9.21816 5.47368 9.43245 5.87459 9.51927 6.31105C9.60609 6.7475 9.56153 7.1999 9.39123 7.61104C9.22094 8.02217 8.93255 8.37357 8.56254 8.62081C8.19253 8.86804 7.75751 9 7.3125 9C6.71577 9 6.14347 8.76295 5.72151 8.34099C5.29956 7.91903 5.0625 7.34674 5.0625 6.75ZM11.9363 11.4195C11.3089 10.5104 10.4268 9.80706 9.40078 9.39797C9.9519 8.96389 10.3541 8.36886 10.5513 7.69563C10.7486 7.0224 10.7312 6.30442 10.5015 5.64156C10.2718 4.97869 9.84121 4.40387 9.26968 3.99705C8.69814 3.59022 8.01404 3.37161 7.3125 3.37161C6.61096 3.37161 5.92686 3.59022 5.35533 3.99705C4.78379 4.40387 4.35324 4.97869 4.12354 5.64156C3.89384 6.30442 3.87641 7.0224 4.07368 7.69563C4.27095 8.36886 4.6731 8.96389 5.22422 9.39797C4.19823 9.80706 3.3161 10.5104 2.68875 11.4195C1.89603 10.528 1.3779 9.42641 1.19675 8.24731C1.01561 7.0682 1.17918 5.86188 1.66776 4.77358C2.15634 3.68529 2.9491 2.76144 3.95058 2.11327C4.95207 1.4651 6.11957 1.12025 7.3125 1.12025C8.50544 1.12025 9.67294 1.4651 10.6744 2.11327C11.6759 2.76144 12.4687 3.68529 12.9572 4.77358C13.4458 5.86188 13.6094 7.0682 13.4283 8.24731C13.2471 9.42641 12.729 10.528 11.9363 11.4195Z" fill="black"/>
</svg>
