<svg width="13" height="13" viewBox="0 0 13 13" fill="none" xmlns="http://www.w3.org/2000/svg">
<path fill-rule="evenodd" clip-rule="evenodd" d="M5.75 1C3.12665 1 1 3.12665 1 5.75C1 8.37335 3.12665 10.5 5.75 10.5C8.37335 10.5 10.5 8.37335 10.5 5.75C10.5 3.12665 8.37335 1 5.75 1ZM0 5.75C0 2.57436 2.57436 0 5.75 0C8.92564 0 11.5 2.57436 11.5 5.75C11.5 8.92564 8.92564 11.5 5.75 11.5C2.57436 11.5 0 8.92564 0 5.75Z" fill="black"/>
<path fill-rule="evenodd" clip-rule="evenodd" d="M9.10895 9.10895C9.30421 8.91368 9.62079 8.91368 9.81605 9.10895L12.8536 12.1464C13.0488 12.3417 13.0488 12.6583 12.8536 12.8536C12.6583 13.0488 12.3417 13.0488 12.1464 12.8536L9.10895 9.81605C8.91368 9.62079 8.91368 9.30421 9.10895 9.10895Z" fill="black"/>
</svg>
