<svg width="10" height="10" viewBox="0 0 10 10" fill="none" xmlns="http://www.w3.org/2000/svg">
<g clip-path="url(#clip0_1081_135435)">
<path d="M9.15242 4.48588L7.3946 6.00268L7.93015 8.27104C7.9597 8.39418 7.95209 8.52331 7.90829 8.64213C7.86448 8.76094 7.78644 8.86411 7.68403 8.9386C7.58162 9.01309 7.45943 9.05555 7.3329 9.06063C7.20637 9.06571 7.08117 9.03317 6.97312 8.96713L5.00046 7.75307L3.02664 8.96713C2.9186 9.03279 2.79355 9.06502 2.66724 9.05975C2.54092 9.05449 2.41899 9.01197 2.31679 8.93754C2.2146 8.86312 2.1367 8.76012 2.09293 8.64152C2.04915 8.52292 2.04144 8.39401 2.07078 8.27104L2.60828 6.00268L0.850464 4.48588C0.754877 4.40327 0.685747 4.29433 0.651707 4.17266C0.617667 4.05099 0.620226 3.92199 0.659064 3.80177C0.697901 3.68155 0.771297 3.57543 0.870085 3.49667C0.968872 3.41792 1.08867 3.37001 1.21453 3.35893L3.51921 3.17299L4.40828 1.02143C4.4564 0.904171 4.5383 0.803871 4.64358 0.733281C4.74885 0.662691 4.87274 0.625 4.99949 0.625C5.12624 0.625 5.25012 0.662691 5.3554 0.733281C5.46067 0.803871 5.54258 0.904171 5.5907 1.02143L6.47937 3.17299L8.78406 3.35893C8.91016 3.3696 9.03031 3.41724 9.12946 3.49589C9.2286 3.57453 9.30234 3.68069 9.34142 3.80106C9.3805 3.92143 9.38319 4.05065 9.34915 4.17254C9.31511 4.29443 9.24586 4.40357 9.15007 4.48627L9.15242 4.48588Z" fill="#FE9800"/>
</g>
<defs>
<clipPath id="clip0_1081_135435">
<rect width="10" height="10" fill="white"/>
</clipPath>
</defs>
</svg>
