<svg width="14" height="3" viewBox="0 0 14 3" fill="none" xmlns="http://www.w3.org/2000/svg">
<path d="M6.53125 2.0625C7.10079 2.0625 7.5625 1.60079 7.5625 1.03125C7.5625 0.461706 7.10079 0 6.53125 0C5.96171 0 5.5 0.461706 5.5 1.03125C5.5 1.60079 5.96171 2.0625 6.53125 2.0625Z" fill="#181E27"/>
<path d="M12.0312 2.0625C12.6008 2.0625 13.0625 1.60079 13.0625 1.03125C13.0625 0.461706 12.6008 0 12.0312 0C11.4617 0 11 0.461706 11 1.03125C11 1.60079 11.4617 2.0625 12.0312 2.0625Z" fill="#181E27"/>
<path d="M1.03125 2.0625C1.60079 2.0625 2.0625 1.60079 2.0625 1.03125C2.0625 0.461706 1.60079 0 1.03125 0C0.461706 0 0 0.461706 0 1.03125C0 1.60079 0.461706 2.0625 1.03125 2.0625Z" fill="#181E27"/>
</svg>
