<svg width="15" height="15" viewBox="0 0 15 15" fill="none" xmlns="http://www.w3.org/2000/svg">
<path d="M4.375 5C4.375 4.83424 4.44085 4.67527 4.55806 4.55806C4.67527 4.44085 4.83424 4.375 5 4.375H10C10.1658 4.375 10.3247 4.44085 10.4419 4.55806C10.5592 4.67527 10.625 4.83424 10.625 5C10.625 5.16576 10.5592 5.32473 10.4419 5.44194C10.3247 5.55915 10.1658 5.625 10 5.625H5C4.83424 5.625 4.67527 5.55915 4.55806 5.44194C4.44085 5.32473 4.375 5.16576 4.375 5ZM5 8.125H10C10.1658 8.125 10.3247 8.05915 10.4419 7.94194C10.5592 7.82473 10.625 7.66576 10.625 7.5C10.625 7.33424 10.5592 7.17527 10.4419 7.05806C10.3247 6.94085 10.1658 6.875 10 6.875H5C4.83424 6.875 4.67527 6.94085 4.55806 7.05806C4.44085 7.17527 4.375 7.33424 4.375 7.5C4.375 7.66576 4.44085 7.82473 4.55806 7.94194C4.67527 8.05915 4.83424 8.125 5 8.125ZM7.5 9.375H5C4.83424 9.375 4.67527 9.44085 4.55806 9.55806C4.44085 9.67527 4.375 9.83424 4.375 10C4.375 10.1658 4.44085 10.3247 4.55806 10.4419C4.67527 10.5592 4.83424 10.625 5 10.625H7.5C7.66576 10.625 7.82473 10.5592 7.94194 10.4419C8.05915 10.3247 8.125 10.1658 8.125 10C8.125 9.83424 8.05915 9.67527 7.94194 9.55806C7.82473 9.44085 7.66576 9.375 7.5 9.375ZM15 1.25V9.74141C15.0005 9.90562 14.9684 10.0683 14.9055 10.22C14.8426 10.3717 14.7502 10.5093 14.6336 10.625L10.625 14.6336C10.5093 14.7502 10.3717 14.8426 10.22 14.9055C10.0683 14.9684 9.90562 15.0005 9.74141 15H1.25C0.918479 15 0.600537 14.8683 0.366116 14.6339C0.131696 14.3995 0 14.0815 0 13.75V1.25C0 0.918479 0.131696 0.600537 0.366116 0.366116C0.600537 0.131696 0.918479 0 1.25 0H13.75C14.0815 0 14.3995 0.131696 14.6339 0.366116C14.8683 0.600537 15 0.918479 15 1.25ZM1.25 13.75H9.375V10C9.375 9.83424 9.44085 9.67527 9.55806 9.55806C9.67527 9.44085 9.83424 9.375 10 9.375H13.75V1.25H1.25V13.75ZM10.625 10.625V12.8672L12.8664 10.625H10.625Z" fill="#63716E"/>
</svg>
